<svg xmlns="http://www.w3.org/2000/svg" width="512" height="512"><path d="M34.235 151.037c-1.648.662-4.573 5.718-10.75 18.58-4.667 9.72-8.485 18.732-8.485 20.027 0 1.296.9 3.256 2 4.356 1.822 1.822 3.333 2 17 2 8.25 0 15 .305 15 .678 0 .373-10.863 23.211-24.14 50.75C9.133 280.05.699 298.638.66 300.764c-.128 6.979-2.211 6.705 53.316 7.013 49.486.274 49.912.294 50.564 2.349 1.918 6.042-4.014 20.513-12.432 30.331-4.232 4.935-5.108 6.618-5.108 9.815 0 8.511 3.646 10.608 19.868 11.423 14.321.72 20.535-.505 25.077-4.945 5.405-5.285 6.392-8.79 6.478-22.996.042-7.01.314-12.748.605-12.75.29-.002 1.353.961 2.363 2.14 1.746 2.039 2.403 2.112 13.472 1.502 98.777-5.446 106.542-5.669 113.804-3.257 6.078 2.019 12.457 7.245 14.756 12.089 2.722 5.738 4.531 6.361 20.583 7.091 51.017 2.318 113.073-10.242 156.534-31.682l10.445-5.153 19.257-33.564c10.592-18.46 19.845-35.163 20.563-37.117 2.777-7.557-1.494-14.252-10.206-16-9.69-1.944-59.768-7.269-62.749-6.673-1.723.345-4.128.023-5.671-.757-3.888-1.968-14.676-2.963-17.24-1.59-1.659.887-2.466.8-3.804-.41-2.08-1.883-15.744-3.683-18.931-2.494-1.552.579-3.01.4-4.5-.554-2.939-1.88-14.956-3.093-17.353-1.751-1.36.761-2.261.663-3.402-.37-2.173-1.967-15.499-3.765-17.996-2.429-1.458.781-2.577.612-4.56-.687-1.941-1.272-5.028-1.766-11.819-1.893-5.056-.094-10.066-.631-11.133-1.193-2.792-1.472-15.674-2.487-17.359-1.368-.943.626-2.14.469-3.57-.468-2.591-1.698-17.002-3.77-22.542-3.242-2.184.209-3.97.259-3.97.112 0-.147 4.95-6.616 11-14.376 10.133-12.996 11-14.449 11-18.436 0-3.485-.513-4.733-2.635-6.401L290.73 150l-127.115.063c-73.846.037-128.064.445-129.38.974" fill="undefined" fill-rule="evenodd"/></svg>